# xmcd CD database file
#
# Track frame offsets:
#	150
#	12783
#	27203
#	42836
#	55710
#	72064
#	87186
#	100785
#	112782
#	123693
#	137157
#	153178
#	165663
#	177865
#	190389
#	205842
#	220221
#	233524
#	246138
#	257471
#
# Disc length: 3607 seconds
#
# Revision: 0
# Processed by: cddbd v1.5.2PL0 Copyright (c) Steve Scherf et al.
# Submitted via: CDex 1.51
#
DISCID=fd0e1514
DTITLE=_ - Jazzowanki Tancowanki
DYEAR=1900
DGENRE=Jazz
TTITLE0=Honeysuckle Rose
TTITLE1=Swing' 41
TTITLE2=Chattanooga Choo Choo
TTITLE3=Hear My Song, Violetta
TTITLE4=In The Mood
TTITLE5=American Patrol
TTITLE6=I'm In The Mood For Love
TTITLE7=Exactly Like You
TTITLE8=Here's Love In Your Eyes
TTITLE9=Silhouetted In The Moonlight
TTITLE10=Lack Eyes
TTITLE11=You Started Me Dreaming
TTITLE12=When The Saints go Marching In
TTITLE13=Dark Rapture
TTITLE14=Blue Lester
TTITLE15=You Can Depend On Me
TTITLE16=Miss Thing
TTITLE17=Out The Window
TTITLE18=Red Rank Boogie
TTITLE19=Sent For You Yesterday (And Here You Come Todey)
EXTD=
EXTT0=
EXTT1=
EXTT2=
EXTT3=
EXTT4=
EXTT5=
EXTT6=
EXTT7=
EXTT8=
EXTT9=
EXTT10=
EXTT11=
EXTT12=
EXTT13=
EXTT14=
EXTT15=
EXTT16=
EXTT17=
EXTT18=
EXTT19=
PLAYORDER=
